<svg xmlns="http://www.w3.org/2000/svg" xmlns:xlink="http://www.w3.org/1999/xlink" width="193" zoomAndPan="magnify" viewBox="0 0 144.75 144.75" height="193" preserveAspectRatio="xMidYMid meet" version="1.0"><defs><clipPath id="ac3be62c08"><path d="M 0 0 L 144.5 0 L 144.5 144.5 L 0 144.5 Z M 0 0 " clip-rule="nonzero"/></clipPath><clipPath id="0974a3cf3e"><path d="M 72.25 0 C 32.347656 0 0 32.347656 0 72.25 C 0 112.152344 32.347656 144.5 72.25 144.5 C 112.152344 144.5 144.5 112.152344 144.5 72.25 C 144.5 32.347656 112.152344 0 72.25 0 Z M 72.25 0 " clip-rule="nonzero"/></clipPath><clipPath id="1a3107c4ef"><path d="M 70.574219 0 L 144.5 0 L 144.5 77.101562 L 70.574219 77.101562 Z M 70.574219 0 " clip-rule="nonzero"/></clipPath></defs><g clip-path="url(#ac3be62c08)"><g clip-path="url(#0974a3cf3e)"><path fill="#e67531" d="M 0 0 L 144.5 0 L 144.5 144.5 L 0 144.5 Z M 0 0 " fill-opacity="1" fill-rule="nonzero"/></g></g><g clip-path="url(#1a3107c4ef)"><path fill="#e67531" d="M 70.574219 0 L 144.5 0 L 144.5 77.101562 L 70.574219 77.101562 Z M 70.574219 0 " fill-opacity="1" fill-rule="nonzero"/></g></svg>